<?xml version="1.0" encoding="UTF-8" standalone="no"?>
<!-- Generator: Adobe Illustrator 19.2.1, SVG Export Plug-In . SVG Version: 6.00 Build 0)  -->

<svg
   xmlns:dc="http://purl.org/dc/elements/1.1/"
   xmlns:cc="http://creativecommons.org/ns#"
   xmlns:rdf="http://www.w3.org/1999/02/22-rdf-syntax-ns#"
   xmlns:svg="http://www.w3.org/2000/svg"
   xmlns="http://www.w3.org/2000/svg"
   xmlns:sodipodi="http://sodipodi.sourceforge.net/DTD/sodipodi-0.dtd"
   xmlns:inkscape="http://www.inkscape.org/namespaces/inkscape"
   version="1.1"
   id="Calque_1"
   x="0px"
   y="0px"
   viewBox="0 0 234 234"
   style="enable-background:new 0 0 234 234;"
   xml:space="preserve"
   inkscape:version="0.91 r13725"
   sodipodi:docname="accueil_economie.svg"><metadata
     id="metadata3446"><rdf:RDF><cc:Work
         rdf:about=""><dc:format>image/svg+xml</dc:format><dc:type
           rdf:resource="http://purl.org/dc/dcmitype/StillImage" /><dc:title></dc:title></cc:Work></rdf:RDF></metadata><defs
     id="defs3444" /><sodipodi:namedview
     pagecolor="#000000"
     bordercolor="#666666"
     borderopacity="1"
     objecttolerance="10"
     gridtolerance="10"
     guidetolerance="10"
     inkscape:pageopacity="1"
     inkscape:pageshadow="2"
     inkscape:window-width="1284"
     inkscape:window-height="728"
     id="namedview3442"
     showgrid="true"
     inkscape:zoom="2.1752137"
     inkscape:cx="115.85069"
     inkscape:cy="117"
     inkscape:window-x="7"
     inkscape:window-y="0"
     inkscape:window-maximized="0"
     inkscape:current-layer="Calque_1"
     showguides="true"><inkscape:grid
       type="xygrid"
       id="grid4532" /></sodipodi:namedview><style
     type="text/css"
     id="style3436">
	.st0{fill:#FFF947;}
</style><g
     id="g3438"><path
       class="st0"
       d="M117,234c-0.3,0-0.6-0.1-0.8-0.3L0.3,117.8C0.1,117.6,0,117.3,0,117s0.1-0.6,0.3-0.8L116.2,0.3   c0.4-0.4,1.2-0.4,1.6,0l115.9,115.9c0.4,0.4,0.4,1.2,0,1.6L117.8,233.7C117.6,233.9,117.3,234,117,234z M2.7,117L117,231.3   L231.3,117L117,2.7L2.7,117z"
       id="path3440" /></g><style
     id="style3643"
     type="text/css">
	.st0{fill:#FFF947;}
</style><g
     id="g3645"
     transform="matrix(1.3529522,0,0,1.1686383,90.303277,29.886877)"><g
       id="g3647"><path
         id="path3649"
         d="M 27.1,50.5 12,50.5 C 9,50.5 6.5,48.1 6.5,45 l 0,-5 C 6.5,36.7 5.4,33.5 3.5,30.7 0.9,27 -0.3,22.6 0.1,18 0.8,8.4 8.6,0.7 18.2,0 c 5.5,-0.4 10.7,1.5 14.7,5.2 3.9,3.7 6.2,8.9 6.2,14.3 0,4 -1.2,7.9 -3.5,11.1 -2,2.9 -3.1,6.2 -3.1,9.4 l 0,5 c 0,3 -2.4,5.5 -5.4,5.5 z M 19.6,1.1 c -0.4,0 -0.9,0 -1.3,0 C 9.3,1.7 1.9,9 1.3,18 1,22.3 2.1,26.5 4.6,30 c 2.1,3 3.3,6.5 3.3,10 l 0,5 c 0,2.4 1.9,4.3 4.3,4.3 l 15,0 c 2.4,0 4.3,-1.9 4.3,-4.3 l 0,-4.9 c 0,-3.5 1.1,-7 3.3,-10.1 C 37,26.9 38.1,23.3 38.1,19.5 38.1,14.4 36,9.5 32.3,6 28.7,2.9 24.2,1.1 19.6,1.1 Z"
         class="st0"
         inkscape:connector-curvature="0"
         style="fill:#fff947" /></g><g
       id="g3651"><path
         id="path3653"
         d="M 30.2,54 8.9,54 c -0.3,0 -0.6,-0.3 -0.6,-0.6 0,-0.3 0.3,-0.6 0.6,-0.6 l 21.3,0 c 0.3,0 0.6,0.3 0.6,0.6 0,0.3 -0.3,0.6 -0.6,0.6 z"
         class="st0"
         inkscape:connector-curvature="0"
         style="fill:#fff947" /></g><g
       id="g3655"><path
         id="path3657"
         d="m 30.2,57.5 -21.3,0 c -0.3,0 -0.6,-0.3 -0.6,-0.6 0,-0.3 0.3,-0.6 0.6,-0.6 l 21.3,0 c 0.3,0 0.6,0.3 0.6,0.6 0,0.3 -0.3,0.6 -0.6,0.6 z"
         class="st0"
         inkscape:connector-curvature="0"
         style="fill:#fff947" /></g><g
       id="g3659"><path
         id="path3661"
         d="M 30.2,61 8.9,61 c -0.3,0 -0.6,-0.3 -0.6,-0.6 0,-0.3 0.3,-0.6 0.6,-0.6 l 21.3,0 c 0.3,0 0.6,0.3 0.6,0.6 0,0.3 -0.3,0.6 -0.6,0.6 z"
         class="st0"
         inkscape:connector-curvature="0"
         style="fill:#fff947" /></g><g
       id="g3663"><path
         id="path3665"
         d="m 19.4,68.1 c -2.4,0 -4.4,-2 -4.4,-4.4 0,-0.3 0.3,-0.6 0.6,-0.6 0.3,0 0.6,0.3 0.6,0.6 0,1.8 1.5,3.3 3.3,3.3 1.8,0 3.3,-1.5 3.3,-3.3 0,-0.3 0.3,-0.6 0.6,-0.6 0.3,0 0.6,0.3 0.6,0.6 -0.1,2.4 -2.1,4.4 -4.6,4.4 z"
         class="st0"
         inkscape:connector-curvature="0"
         style="fill:#fff947" /></g><g
       id="g3667"><path
         id="path3669"
         d="m 17,39.8 c 0,0 -0.1,0 -0.1,0 -0.2,-0.1 -0.4,-0.3 -0.4,-0.5 l 0,-11.4 -4.5,0 c -0.2,0 -0.4,-0.1 -0.5,-0.3 -0.1,-0.2 -0.1,-0.4 0,-0.6 l 9.3,-15.7 c 0.1,-0.2 0.4,-0.3 0.6,-0.3 0.2,0.1 0.4,0.3 0.4,0.5 l 0,11.3 4.4,0 c 0.2,0 0.4,0.1 0.5,0.3 0.1,0.2 0.1,0.4 0,0.6 l -9.3,15.7 c 0,0.3 -0.2,0.4 -0.4,0.4 z m -4,-13 4,0 c 0.3,0 0.6,0.3 0.6,0.6 l 0,9.8 7.7,-13 -4,0 c -0.3,0 -0.6,-0.3 -0.6,-0.6 l 0,-9.8 -7.7,13 z"
         class="st0"
         inkscape:connector-curvature="0"
         style="fill:#fff947" /></g></g><text
     xml:space="preserve"
     style="font-style:normal;font-variant:normal;font-weight:normal;font-stretch:normal;font-size:17.65374947px;line-height:125%;font-family:sans-serif;-inkscape-font-specification:'sans-serif, Normal';text-align:start;letter-spacing:0px;word-spacing:0px;writing-mode:lr-tb;text-anchor:start;fill:#ffffff;fill-opacity:1;stroke:none;stroke-width:1px;stroke-linecap:butt;stroke-linejoin:miter;stroke-opacity:1;"
     x="62.580547"
     y="153.01085"
     id="text4536"
     sodipodi:linespacing="125%"
     transform="scale(1.0087506,0.99132532)"><tspan
       sodipodi:role="line"
       x="62.580547"
       y="153.01085"
       id="tspan4538"
       style="font-style:normal;font-variant:normal;font-weight:normal;font-stretch:normal;font-size:17.65374947px;line-height:125%;font-family:sans-serif;-inkscape-font-specification:'sans-serif, Normal';text-align:start;writing-mode:lr-tb;text-anchor:start;fill:#ffffff;fill-opacity:1;"><tspan
         x="62.580547"
         y="153.01085"
         style="font-style:normal;font-variant:normal;font-weight:normal;font-stretch:normal;font-size:17.65374947px;line-height:125%;font-family:sans-serif;-inkscape-font-specification:'sans-serif, Normal';text-align:start;writing-mode:lr-tb;text-anchor:start;fill:#ffffff;fill-opacity:1;"
         id="tspan4540">ÉCONOMIES </tspan></tspan><tspan
       sodipodi:role="line"
       x="68.09716"
       y="175.07729"
       id="tspan4542"
       style="font-style:normal;font-variant:normal;font-weight:normal;font-stretch:normal;font-size:17.65374947px;line-height:125%;font-family:sans-serif;-inkscape-font-specification:'sans-serif, Normal';text-align:start;writing-mode:lr-tb;text-anchor:start;fill:#ffffff;fill-opacity:1;"><tspan
         x="68.09716"
         y="175.07729"
         style="font-style:normal;font-variant:normal;font-weight:normal;font-stretch:normal;font-size:17.65374947px;line-height:125%;font-family:sans-serif;-inkscape-font-specification:'sans-serif, Normal';text-align:start;writing-mode:lr-tb;text-anchor:start;fill:#ffffff;fill-opacity:1;"
         id="tspan4544">D'ÉNERGIE</tspan></tspan></text>
</svg>