<?xml version="1.0" encoding="UTF-8" standalone="no"?>
<!-- Generator: Adobe Illustrator 19.2.1, SVG Export Plug-In . SVG Version: 6.00 Build 0)  -->

<svg
   xmlns:dc="http://purl.org/dc/elements/1.1/"
   xmlns:cc="http://creativecommons.org/ns#"
   xmlns:rdf="http://www.w3.org/1999/02/22-rdf-syntax-ns#"
   xmlns:svg="http://www.w3.org/2000/svg"
   xmlns="http://www.w3.org/2000/svg"
   xmlns:sodipodi="http://sodipodi.sourceforge.net/DTD/sodipodi-0.dtd"
   xmlns:inkscape="http://www.inkscape.org/namespaces/inkscape"
   version="1.1"
   id="Calque_1"
   x="0px"
   y="0px"
   viewBox="0 0 234 234"
   style="enable-background:new 0 0 234 234;"
   xml:space="preserve"
   inkscape:version="0.91 r13725"
   sodipodi:docname="accueil_flux.svg"><metadata
     id="metadata4616"><rdf:RDF><cc:Work
         rdf:about=""><dc:format>image/svg+xml</dc:format><dc:type
           rdf:resource="http://purl.org/dc/dcmitype/StillImage" /><dc:title></dc:title></cc:Work></rdf:RDF></metadata><defs
     id="defs4614" /><sodipodi:namedview
     pagecolor="#000000"
     bordercolor="#666666"
     borderopacity="1"
     objecttolerance="10"
     gridtolerance="10"
     guidetolerance="10"
     inkscape:pageopacity="0"
     inkscape:pageshadow="2"
     inkscape:window-width="845"
     inkscape:window-height="561"
     id="namedview4612"
     showgrid="false"
     inkscape:zoom="1.008547"
     inkscape:cx="117.99153"
     inkscape:cy="117"
     inkscape:window-x="92"
     inkscape:window-y="29"
     inkscape:window-maximized="0"
     inkscape:current-layer="Calque_1" /><style
     type="text/css"
     id="style4606">
	.st0{fill:#FFF947;}
</style><g
     id="g4608"><path
       class="st0"
       d="M117,234c-0.3,0-0.6-0.1-0.8-0.3L0.3,117.8C0.1,117.6,0,117.3,0,117s0.1-0.6,0.3-0.8L116.2,0.3   c0.4-0.4,1.2-0.4,1.6,0l115.9,115.9c0.4,0.4,0.4,1.2,0,1.6L117.8,233.7C117.6,233.9,117.3,234,117,234z M2.7,117L117,231.3   L231.3,117L117,2.7L2.7,117z"
       id="path4610" /></g><style
     id="style3482"
     type="text/css">
	.st0{fill:#FFF947;}
</style><g
     id="g3484"
     transform="matrix(1.2147234,0,0,1.155873,70.488051,50.516086)"><g
       id="g3486"><path
         id="path3488"
         d="m 81.2,32.3 -9.3,0 0,-1.1 9.3,0 C 82,31.2 82,30.1 82,30 l 0,-3.2 C 82,26.4 81.9,26.1 81.7,26 81.4,25.7 80.9,25.7 80.9,25.7 80.6,25.7 80.3,25.5 80.3,25.2 80.1,23.2 79,19.1 78.7,18 70.3,14.5 60.5,13.9 60.4,13.9 60.2,13.9 60.1,13.8 60,13.7 55.8,8.4 50,2.9 49.3,2.6 35.8,-0.4 17,2.2 14.5,2.6 L 8,15.2 c 0,0.1 -0.1,0.2 -0.2,0.2 -2.1,1.3 -4.4,2.9 -4.6,3.4 -0.1,1 -0.2,4.3 -0.2,4.7 0,0.1 0,0.1 0,0.2 0,0.3 -0.3,0.5 -0.6,0.5 -0.2,0 -1.2,0.1 -1.2,1.6 l 0,3.3 c 0,0.3 0,1.1 0.4,1.4 0.1,0.1 0.3,0.2 0.5,0.2 l 5.4,0 0,1.1 -5.5,0 C 1.5,31.8 1,31.6 0.7,31.3 -0.1,30.6 0,29.3 0,29.1 l 0,-3.3 c 0,-1.7 1,-2.4 1.8,-2.7 0,-0.7 0.1,-2 0.2,-4.5 0.1,-1 2.7,-2.8 5,-4.2 L 13.6,1.6 c 0.1,-0.2 0.2,-0.3 0.4,-0.3 0.2,0 20.9,-3.3 35.6,0 0.8,0.2 7.2,6.4 11.2,11.3 1.6,0.1 10.8,0.9 18.7,4.2 0.2,0.1 0.3,0.2 0.3,0.4 0.1,0.2 1.3,4.6 1.6,7.2 0.3,0.1 0.7,0.2 1.1,0.5 0.4,0.4 0.6,1 0.6,1.7 l 0,3.2 c 0.1,0.9 -0.3,2.5 -1.9,2.5 z"
         class="st0"
         inkscape:connector-curvature="0"
         style="fill:#fff947" /></g><g
       id="g3490"><path
         id="path3492"
         d="m 62.3,38 c -4.1,0 -7.5,-3.4 -7.5,-7.5 0,-4.1 3.4,-7.5 7.5,-7.5 4.1,0 7.5,3.4 7.5,7.5 0,4.2 -3.3,7.5 -7.5,7.5 z m 0,-13.8 c -3.5,0 -6.3,2.8 -6.3,6.3 0,3.5 2.8,6.3 6.3,6.3 3.5,0 6.3,-2.8 6.3,-6.3 0.1,-3.4 -2.8,-6.3 -6.3,-6.3 z"
         class="st0"
         inkscape:connector-curvature="0"
         style="fill:#fff947" /></g><g
       id="g3494"><path
         id="path3496"
         d="m 16.7,38 c -4.1,0 -7.5,-3.4 -7.5,-7.5 0,-4.1 3.4,-7.5 7.5,-7.5 4.1,0 7.5,3.4 7.5,7.5 -0.1,4.2 -3.4,7.5 -7.5,7.5 z m 0,-13.8 c -3.5,0 -6.3,2.8 -6.3,6.3 0,3.5 2.8,6.3 6.3,6.3 3.5,0 6.3,-2.8 6.3,-6.3 0,-3.4 -2.8,-6.3 -6.3,-6.3 z"
         class="st0"
         inkscape:connector-curvature="0"
         style="fill:#fff947" /></g><g
       id="g3498"><rect
         id="rect3500"
         height="1.1"
         width="26"
         class="st0"
         y="31"
         x="26.5"
         style="fill:#fff947" /></g><g
       id="g3502"><path
         id="path3504"
         d="m 55,14.9 -18.2,0 c -0.3,0 -0.6,-0.3 -0.6,-0.6 l 0,-10.2 c 0,-0.3 0.3,-0.6 0.6,-0.6 l 9.7,0 0,1.1 -9.1,0 0,9.1 17.6,0 0,1.2 z"
         class="st0"
         inkscape:connector-curvature="0"
         style="fill:#fff947" /></g><g
       id="g3506"><path
         id="path3508"
         d="m 32.5,14.9 -18.2,0 0,-1.1 17.6,0 0,-9.1 -9.1,0 0,-1.1 9.7,0 c 0.3,0 0.6,0.3 0.6,0.6 l 0,10.2 c 0,0.3 -0.3,0.5 -0.6,0.5 z"
         class="st0"
         inkscape:connector-curvature="0"
         style="fill:#fff947" /></g><g
       id="g3510"><rect
         id="rect3512"
         height="8.8999996"
         width="1.1"
         class="st0"
         y="17.799999"
         x="34.299999"
         style="fill:#fff947" /></g></g><text
     xml:space="preserve"
     style="font-style:normal;font-variant:normal;font-weight:normal;font-stretch:normal;font-size:17.5px;line-height:125%;font-family:sans-serif;-inkscape-font-specification:'sans-serif, Normal';text-align:center;letter-spacing:0px;word-spacing:0px;writing-mode:lr-tb;text-anchor:middle;fill:#ffffff;fill-opacity:1;stroke:none;stroke-width:1px;stroke-linecap:butt;stroke-linejoin:miter;stroke-opacity:1"
     x="114.07041"
     y="142.37479"
     id="text4365"
     sodipodi:linespacing="125%"><tspan
       sodipodi:role="line"
       x="116.85606"
       y="142.37479"
       id="tspan4367"><tspan
         x="114.07041"
         y="142.37479"
         id="tspan4369">MESURE </tspan></tspan><tspan
       sodipodi:role="line"
       x="112.89121"
       y="164.24979"
       id="tspan4371"><tspan
         x="112.89121"
         id="tspan4373">DU FLUX</tspan></tspan></text>
</svg>