<?xml version="1.0" encoding="UTF-8" standalone="no"?>
<!-- Generator: Adobe Illustrator 19.2.1, SVG Export Plug-In . SVG Version: 6.00 Build 0)  -->

<svg
   xmlns:dc="http://purl.org/dc/elements/1.1/"
   xmlns:cc="http://creativecommons.org/ns#"
   xmlns:rdf="http://www.w3.org/1999/02/22-rdf-syntax-ns#"
   xmlns:svg="http://www.w3.org/2000/svg"
   xmlns="http://www.w3.org/2000/svg"
   xmlns:sodipodi="http://sodipodi.sourceforge.net/DTD/sodipodi-0.dtd"
   xmlns:inkscape="http://www.inkscape.org/namespaces/inkscape"
   version="1.1"
   id="Calque_1"
   x="0px"
   y="0px"
   viewBox="0 0 234 234"
   style="enable-background:new 0 0 234 234;"
   xml:space="preserve"
   inkscape:version="0.91 r13725"
   sodipodi:docname="accueil_mesure.svg"><metadata
     id="metadata4616"><rdf:RDF><cc:Work
         rdf:about=""><dc:format>image/svg+xml</dc:format><dc:type
           rdf:resource="http://purl.org/dc/dcmitype/StillImage" /><dc:title></dc:title></cc:Work></rdf:RDF></metadata><defs
     id="defs4614" /><sodipodi:namedview
     pagecolor="#000000"
     bordercolor="#666666"
     borderopacity="1"
     objecttolerance="10"
     gridtolerance="10"
     guidetolerance="10"
     inkscape:pageopacity="0"
     inkscape:pageshadow="2"
     inkscape:window-width="1017"
     inkscape:window-height="530"
     id="namedview4612"
     showgrid="false"
     inkscape:zoom="1.008547"
     inkscape:cx="117"
     inkscape:cy="117"
     inkscape:window-x="221"
     inkscape:window-y="122"
     inkscape:window-maximized="0"
     inkscape:current-layer="Calque_1" /><style
     type="text/css"
     id="style4606">
	.st0{fill:#FFF947;}
</style><g
     id="g4608"><path
       class="st0"
       d="M117,234c-0.3,0-0.6-0.1-0.8-0.3L0.3,117.8C0.1,117.6,0,117.3,0,117s0.1-0.6,0.3-0.8L116.2,0.3   c0.4-0.4,1.2-0.4,1.6,0l115.9,115.9c0.4,0.4,0.4,1.2,0,1.6L117.8,233.7C117.6,233.9,117.3,234,117,234z M2.7,117L117,231.3   L231.3,117L117,2.7L2.7,117z"
       id="path4610" /></g><style
     id="style4531"
     type="text/css">
	.st0{fill:#FFF947;}
</style><g
     id="g4533"
     transform="matrix(1.1944167,0,0,1.138578,74.299601,32.69718)"><g
       id="g4535"><g
         id="g4537"><path
           id="path4539"
           d="M 2.3,38 C 2.1,38 2,38 1.9,37.9 L 0.2,36.2 C 0,36 0,35.6 0.2,35.4 l 1.7,-1.7 c 0.2,-0.2 0.6,-0.2 0.8,0 0.2,0.2 0.2,0.6 0,0.8 l -1.3,1.3 1.3,1.3 c 0.2,0.2 0.2,0.6 0,0.8 C 2.6,38 2.4,38 2.3,38 Z"
           class="st0"
           inkscape:connector-curvature="0"
           style="fill:#fff947" /></g><g
         id="g4541"><path
           id="path4543"
           d="M 5.8,31 C 5.7,31 5.5,30.9 5.4,30.8 5.2,30.6 5.2,30.2 5.4,30 l 3.5,-3.5 c 0.2,-0.2 0.6,-0.2 0.8,0 0.2,0.2 0.2,0.6 0,0.8 L 6.2,30.8 C 6.1,31 6,31 5.8,31 Z m 7.1,-7 c -0.1,0 -0.3,-0.1 -0.4,-0.2 -0.2,-0.2 -0.2,-0.6 0,-0.8 L 16,19.5 c 0.2,-0.2 0.6,-0.2 0.8,0 0.2,0.2 0.2,0.6 0,0.8 l -3.5,3.5 C 13.1,23.9 13,24 12.9,24 Z m 7,-7.1 c -0.1,0 -0.3,-0.1 -0.4,-0.2 -0.2,-0.2 -0.2,-0.6 0,-0.8 L 23,12.4 c 0.2,-0.2 0.6,-0.2 0.8,0 0.2,0.2 0.2,0.6 0,0.8 l -3.5,3.5 c -0.1,0.2 -0.2,0.2 -0.4,0.2 z m 7.1,-7 c -0.1,0 -0.3,-0.1 -0.4,-0.2 -0.2,-0.2 -0.2,-0.6 0,-0.8 l 3.5,-3.5 c 0.2,-0.2 0.6,-0.2 0.8,0 0.2,0.2 0.2,0.6 0,0.8 L 27.4,9.7 C 27.2,9.8 27.1,9.9 27,9.9 Z"
           class="st0"
           inkscape:connector-curvature="0"
           style="fill:#fff947" /></g><g
         id="g4545"><path
           id="path4547"
           d="M 37.5,2.8 C 37.4,2.8 37.2,2.7 37.1,2.6 L 35.8,1.3 34.5,2.6 c -0.2,0.2 -0.6,0.2 -0.8,0 -0.2,-0.2 -0.2,-0.6 0,-0.8 l 1.7,-1.7 c 0.2,-0.2 0.6,-0.2 0.8,0 l 1.7,1.7 c 0.2,0.2 0.2,0.6 0,0.8 -0.1,0.2 -0.3,0.2 -0.4,0.2 z"
           class="st0"
           inkscape:connector-curvature="0"
           style="fill:#fff947" /></g><g
         id="g4549"><path
           id="path4551"
           d="m 65.7,31 c -0.1,0 -0.3,-0.1 -0.4,-0.2 l -3.5,-3.5 c -0.2,-0.2 -0.2,-0.6 0,-0.8 0.2,-0.2 0.6,-0.2 0.8,0 l 3.5,3.5 c 0.2,0.2 0.2,0.6 0,0.8 C 66,31 65.8,31 65.7,31 Z m -7.1,-7 c -0.1,0 -0.3,-0.1 -0.4,-0.2 l -3.5,-3.5 c -0.2,-0.2 -0.2,-0.6 0,-0.8 0.2,-0.2 0.6,-0.2 0.8,0 L 59,23 c 0.2,0.2 0.2,0.6 0,0.8 -0.1,0.1 -0.2,0.2 -0.4,0.2 z m -7,-7.1 c -0.1,0 -0.3,-0.1 -0.4,-0.2 l -3.5,-3.5 c -0.2,-0.2 -0.2,-0.6 0,-0.8 0.2,-0.2 0.6,-0.2 0.8,0 L 52,16 c 0.2,0.2 0.2,0.6 0,0.8 -0.1,0.1 -0.3,0.1 -0.4,0.1 z m -7.1,-7 C 44.4,9.9 44.2,9.8 44.1,9.7 L 40.6,6.2 c -0.2,-0.2 -0.2,-0.6 0,-0.8 0.2,-0.2 0.6,-0.2 0.8,0 l 3.5,3.5 c 0.2,0.2 0.2,0.6 0,0.8 -0.1,0.1 -0.2,0.2 -0.4,0.2 z"
           class="st0"
           inkscape:connector-curvature="0"
           style="fill:#fff947" /></g><g
         id="g4553"><path
           id="path4555"
           d="m 69.2,38 c -0.1,0 -0.3,-0.1 -0.4,-0.2 -0.2,-0.2 -0.2,-0.6 0,-0.8 l 1.3,-1.3 -1.3,-1.3 c -0.2,-0.2 -0.2,-0.6 0,-0.8 0.2,-0.2 0.6,-0.2 0.8,0 l 1.7,1.7 c 0.2,0.2 0.2,0.6 0,0.8 l -1.7,1.7 C 69.5,38 69.3,38 69.2,38 Z"
           class="st0"
           inkscape:connector-curvature="0"
           style="fill:#fff947" /></g><g
         id="g4557"><path
           id="path4559"
           d="m 41,66.2 c -0.1,0 -0.3,-0.1 -0.4,-0.2 -0.2,-0.2 -0.2,-0.6 0,-0.8 l 3.5,-3.5 c 0.2,-0.2 0.6,-0.2 0.8,0 0.2,0.2 0.2,0.6 0,0.8 L 41.4,66 c -0.1,0.2 -0.3,0.2 -0.4,0.2 z m 7.1,-7 c -0.1,0 -0.3,-0.1 -0.4,-0.2 -0.2,-0.2 -0.2,-0.6 0,-0.8 l 3.5,-3.5 c 0.2,-0.2 0.6,-0.2 0.8,0 0.2,0.2 0.2,0.6 0,0.8 L 48.4,59 c -0.1,0.1 -0.2,0.2 -0.3,0.2 z m 7,-7.1 c -0.1,0 -0.3,-0.1 -0.4,-0.2 -0.2,-0.2 -0.2,-0.6 0,-0.8 l 3.5,-3.5 c 0.2,-0.2 0.6,-0.2 0.8,0 0.2,0.2 0.2,0.6 0,0.8 L 55.5,52 c -0.1,0.1 -0.3,0.1 -0.4,0.1 z m 7,-7 c -0.1,0 -0.3,-0.1 -0.4,-0.2 -0.2,-0.2 -0.2,-0.6 0,-0.8 l 3.5,-3.5 c 0.2,-0.2 0.6,-0.2 0.8,0 0.2,0.2 0.2,0.6 0,0.8 l -3.5,3.5 c -0.1,0.1 -0.2,0.2 -0.4,0.2 z"
           class="st0"
           inkscape:connector-curvature="0"
           style="fill:#fff947" /></g><g
         id="g4561"><path
           id="path4563"
           d="m 35.7,71.5 c -0.1,0 -0.3,-0.1 -0.4,-0.2 l -1.7,-1.7 c -0.2,-0.2 -0.2,-0.6 0,-0.8 0.2,-0.2 0.6,-0.2 0.8,0 l 1.3,1.3 1.3,-1.3 c 0.2,-0.2 0.6,-0.2 0.8,0 0.2,0.2 0.2,0.6 0,0.8 l -1.7,1.7 c -0.1,0.1 -0.2,0.2 -0.4,0.2 z"
           class="st0"
           inkscape:connector-curvature="0"
           style="fill:#fff947" /></g><g
         id="g4565"><path
           id="path4567"
           d="m 30.5,66.2 c -0.1,0 -0.3,-0.1 -0.4,-0.2 l -3.5,-3.5 c -0.2,-0.2 -0.2,-0.6 0,-0.8 0.2,-0.2 0.6,-0.2 0.8,0 l 3.5,3.5 c 0.2,0.2 0.2,0.6 0,0.8 -0.1,0.2 -0.3,0.2 -0.4,0.2 z m -7.1,-7 C 23.3,59.2 23.1,59.1 23,59 l -3.5,-3.5 c -0.2,-0.2 -0.2,-0.6 0,-0.8 0.2,-0.2 0.6,-0.2 0.8,0 l 3.5,3.5 c 0.2,0.2 0.2,0.6 0,0.8 -0.1,0.1 -0.2,0.2 -0.4,0.2 z m -7,-7.1 C 16.3,52.1 16.1,52 16,51.9 l -3.5,-3.5 c -0.2,-0.2 -0.2,-0.6 0,-0.8 0.2,-0.2 0.6,-0.2 0.8,0 l 3.5,3.5 c 0.2,0.2 0.2,0.6 0,0.8 -0.1,0.2 -0.3,0.2 -0.4,0.2 z m -7.1,-7 C 9.2,45.1 9,45 8.9,44.9 L 5.4,41.4 c -0.2,-0.2 -0.2,-0.6 0,-0.8 0.2,-0.2 0.6,-0.2 0.8,0 l 3.5,3.5 c 0.2,0.2 0.2,0.6 0,0.8 -0.1,0.1 -0.2,0.2 -0.4,0.2 z"
           class="st0"
           inkscape:connector-curvature="0"
           style="fill:#fff947" /></g></g><g
       id="g4569"><path
         id="path4571"
         d="m 35.7,63.4 c -0.1,0 -0.3,-0.1 -0.4,-0.2 L 8.2,36.1 C 8.1,36 8,35.9 8,35.7 8,35.5 8.1,35.4 8.2,35.3 L 35.3,8.2 C 35.5,8 35.9,8 36.1,8.2 l 27.1,27.1 c 0.1,0.1 0.2,0.3 0.2,0.4 0,0.1 -0.1,0.3 -0.2,0.4 L 36.1,63.3 c -0.1,0.1 -0.2,0.1 -0.4,0.1 z M 9.4,35.7 35.7,62 62,35.7 35.7,9.4 9.4,35.7 Z"
         class="st0"
         inkscape:connector-curvature="0"
         style="fill:#fff947" /></g></g><text
     xml:space="preserve"
     style="font-style:normal;font-weight:normal;font-size:17.5px;line-height:125%;font-family:sans-serif;letter-spacing:0px;word-spacing:0px;fill:#ffffff;fill-opacity:1;stroke:none;stroke-width:1px;stroke-linecap:butt;stroke-linejoin:miter;stroke-opacity:1"
     x="61.475204"
     y="158.24063"
     id="text5148"
     sodipodi:linespacing="125%"><tspan
       sodipodi:role="line"
       x="61.475204"
       y="158.24063"
       id="tspan5150"><tspan
         x="61.475204"
         y="158.24063"
         id="tspan5152">SUR MESURE</tspan></tspan></text>
</svg>