<?xml version="1.0" encoding="UTF-8" standalone="no"?>
<!-- Generator: Adobe Illustrator 19.2.1, SVG Export Plug-In . SVG Version: 6.00 Build 0)  -->

<svg
   xmlns:dc="http://purl.org/dc/elements/1.1/"
   xmlns:cc="http://creativecommons.org/ns#"
   xmlns:rdf="http://www.w3.org/1999/02/22-rdf-syntax-ns#"
   xmlns:svg="http://www.w3.org/2000/svg"
   xmlns="http://www.w3.org/2000/svg"
   xmlns:sodipodi="http://sodipodi.sourceforge.net/DTD/sodipodi-0.dtd"
   xmlns:inkscape="http://www.inkscape.org/namespaces/inkscape"
   version="1.1"
   id="Calque_1"
   x="0px"
   y="0px"
   viewBox="0 0 234 234"
   style="enable-background:new 0 0 234 234;"
   xml:space="preserve"
   inkscape:version="0.91 r13725"
   sodipodi:docname="accueil_securite.svg"><metadata
     id="metadata4616"><rdf:RDF><cc:Work
         rdf:about=""><dc:format>image/svg+xml</dc:format><dc:type
           rdf:resource="http://purl.org/dc/dcmitype/StillImage" /><dc:title /></cc:Work></rdf:RDF></metadata><defs
     id="defs4614" /><sodipodi:namedview
     pagecolor="#000000"
     bordercolor="#666666"
     borderopacity="1"
     objecttolerance="10"
     gridtolerance="10"
     guidetolerance="10"
     inkscape:pageopacity="0"
     inkscape:pageshadow="2"
     inkscape:window-width="995"
     inkscape:window-height="708"
     id="namedview4612"
     showgrid="false"
     inkscape:zoom="1.008547"
     inkscape:cx="40.6827"
     inkscape:cy="117"
     inkscape:window-x="155"
     inkscape:window-y="5"
     inkscape:window-maximized="0"
     inkscape:current-layer="Calque_1" /><style
     type="text/css"
     id="style4606">
	.st0{fill:#FFF947;}
</style><g
     id="g4608"><path
       class="st0"
       d="M117,234c-0.3,0-0.6-0.1-0.8-0.3L0.3,117.8C0.1,117.6,0,117.3,0,117s0.1-0.6,0.3-0.8L116.2,0.3   c0.4-0.4,1.2-0.4,1.6,0l115.9,115.9c0.4,0.4,0.4,1.2,0,1.6L117.8,233.7C117.6,233.9,117.3,234,117,234z M2.7,117L117,231.3   L231.3,117L117,2.7L2.7,117z"
       id="path4610" /></g><style
     id="style4684"
     type="text/css">
	.st0{fill:#FFF947;}
</style><g
     id="g4703"
     transform="matrix(1.0298035,0,0,1.0853537,81.748199,36.539826)"><g
       id="g4686"><circle
         id="circle4688"
         r="3.0999999"
         cy="16.799999"
         cx="32.400002"
         class="st0"
         style="fill:#fff947" /><path
         id="path4690"
         d="M 45.3,31.9 39.6,27.8 36.1,21 C 36,20.7 35.8,20.4 35.6,20.2 35.3,19.8 34.7,19.7 34.1,19.7 l -3.7,0 c -0.3,0 -0.7,0.1 -0.9,0.3 -0.3,0.1 -0.5,0.3 -0.6,0.5 l -4.4,6.6 c -0.1,0.2 -0.2,0.4 -0.2,0.6 L 23.4,35 c -0.1,0.7 0.4,1.4 1.2,1.5 0.1,0 0.1,0 0.2,0 0.7,0 1.3,-0.5 1.3,-1.2 l 0.8,-7 1.7,-2.5 0,8.9 c 0,0.2 0,0.3 0.1,0.5 l -1.3,7.3 -3.9,7.2 c -0.5,0.9 -0.1,2 0.8,2.5 0.3,0.1 0.6,0.2 0.9,0.2 0.7,0 1.3,-0.4 1.6,-1 l 4,-7.5 C 30.9,43.7 31,43.5 31,43.4 l 1.2,-6.8 0.2,0 6.3,15 c 0.3,0.7 1,1.1 1.7,1.1 0.2,0 0.5,0 0.7,-0.1 0.9,-0.4 1.4,-1.5 1,-2.4 L 35.9,35.4 C 36,35.2 36,35 36,34.8 l 0,-8.1 1.4,2.7 c 0.1,0.2 0.2,0.4 0.4,0.5 l 6,4.3 c 0.2,0.2 0.5,0.3 0.8,0.3 0.4,0 0.8,-0.2 1.1,-0.6 0.3,-0.7 0.2,-1.6 -0.4,-2 z"
         class="st0"
         inkscape:connector-curvature="0"
         style="fill:#fff947" /></g><g
       id="g4692"><path
         id="path4694"
         d="m 33.8,69.7 -1.4,0 c -0.1,0 -0.2,0 -0.3,-0.1 C 3.2,55.2 3.9,41 4.5,28.5 4.5,27.9 4.6,27.2 4.6,26.6 5.2,14.2 0.3,11.2 0.3,11.2 0.1,11.1 0,10.8 0,10.5 0.1,10.3 0.3,10.1 0.6,10.1 25.5,10.4 32.8,0.3 32.8,0.2 32.9,0.1 33.1,0 33.3,0 c 0,0 0,0 0,0 0.2,0 0.4,0.1 0.5,0.2 0.1,0.1 7.4,10.1 32.2,9.9 0,0 0,0 0,0 0.3,0 0.5,0.2 0.5,0.4 0.1,0.3 0,0.5 -0.3,0.6 0,0 -4.9,3 -4.3,15.4 l 0.1,1.6 c 0.6,12.6 1.3,26.9 -27.9,41.5 -0.1,0.1 -0.2,0.1 -0.3,0.1 z m -1.3,-1.1 1.2,0 C 62.1,54.4 61.4,40.5 60.8,28.3 L 60.7,26.7 C 60.3,17.4 62.8,13.1 64.4,11.3 43.2,11.2 35.1,3.7 33.2,1.5 31.3,3.7 23.2,11.2 2,11.3 c 1.6,1.8 4.1,6 3.7,15.4 0,0.6 -0.1,1.3 -0.1,1.9 -0.6,12.7 -1.2,25.9 26.9,40 z"
         class="st0"
         inkscape:connector-curvature="0"
         style="fill:#fff947" /></g></g><text
     xml:space="preserve"
     style="font-style:normal;font-weight:normal;font-size:40px;line-height:125%;font-family:sans-serif;letter-spacing:0px;word-spacing:0px;fill:#ffffff;fill-opacity:1;stroke:none;stroke-width:1px;stroke-linecap:butt;stroke-linejoin:miter;stroke-opacity:1"
     x="115.25758"
     y="156.76559"
     id="text5306"
     sodipodi:linespacing="125%"><tspan
       sodipodi:role="line"
       x="115.25758"
       y="156.76559"
       id="tspan5308"
       style="font-size:17.5px"><tspan
         x="115.25758"
         y="156.76559"
         style="font-style:normal;font-variant:normal;font-weight:normal;font-stretch:normal;font-size:17.5px;line-height:125%;font-family:sans-serif;-inkscape-font-specification:'sans-serif, Normal';text-align:center;writing-mode:lr-tb;text-anchor:middle"
         id="tspan5310">SÉCURITÉ</tspan></tspan></text>
</svg>