<?xml version="1.0" encoding="utf-8"?>
<!-- Generator: Adobe Illustrator 19.2.1, SVG Export Plug-In . SVG Version: 6.00 Build 0)  -->
<svg version="1.1" id="Calque_1" xmlns="http://www.w3.org/2000/svg" xmlns:xlink="http://www.w3.org/1999/xlink" x="0px" y="0px"
	 viewBox="0 0 39.1 68.1" style="enable-background:new 0 0 39.1 68.1;" xml:space="preserve">
<style type="text/css">
	.st0{fill:#FFF947;}
</style>
<g>
	<g>
		<path class="st0" d="M27.1,50.5H12c-3,0-5.5-2.4-5.5-5.5v-5c0-3.3-1.1-6.5-3-9.3C0.9,27-0.3,22.6,0.1,18C0.8,8.4,8.6,0.7,18.2,0
			c5.5-0.4,10.7,1.5,14.7,5.2c3.9,3.7,6.2,8.9,6.2,14.3c0,4-1.2,7.9-3.5,11.1c-2,2.9-3.1,6.2-3.1,9.4V45
			C32.5,48,30.1,50.5,27.1,50.5z M19.6,1.1c-0.4,0-0.9,0-1.3,0c-9,0.6-16.4,7.9-17,16.9c-0.3,4.3,0.8,8.5,3.3,12
			c2.1,3,3.3,6.5,3.3,10v5c0,2.4,1.9,4.3,4.3,4.3h15c2.4,0,4.3-1.9,4.3-4.3v-4.9c0-3.5,1.1-7,3.3-10.1c2.2-3.1,3.3-6.7,3.3-10.5
			c0-5.1-2.1-10-5.8-13.5C28.7,2.9,24.2,1.1,19.6,1.1z"/>
	</g>
	<g>
		<path class="st0" d="M30.2,54H8.9c-0.3,0-0.6-0.3-0.6-0.6s0.3-0.6,0.6-0.6h21.3c0.3,0,0.6,0.3,0.6,0.6S30.5,54,30.2,54z"/>
	</g>
	<g>
		<path class="st0" d="M30.2,57.5H8.9c-0.3,0-0.6-0.3-0.6-0.6s0.3-0.6,0.6-0.6h21.3c0.3,0,0.6,0.3,0.6,0.6S30.5,57.5,30.2,57.5z"/>
	</g>
	<g>
		<path class="st0" d="M30.2,61H8.9c-0.3,0-0.6-0.3-0.6-0.6s0.3-0.6,0.6-0.6h21.3c0.3,0,0.6,0.3,0.6,0.6S30.5,61,30.2,61z"/>
	</g>
	<g>
		<path class="st0" d="M19.4,68.1c-2.4,0-4.4-2-4.4-4.4c0-0.3,0.3-0.6,0.6-0.6s0.6,0.3,0.6,0.6c0,1.8,1.5,3.3,3.3,3.3
			s3.3-1.5,3.3-3.3c0-0.3,0.3-0.6,0.6-0.6s0.6,0.3,0.6,0.6C23.9,66.1,21.9,68.1,19.4,68.1z"/>
	</g>
	<g>
		<path class="st0" d="M17,39.8c0,0-0.1,0-0.1,0c-0.2-0.1-0.4-0.3-0.4-0.5V27.9H12c-0.2,0-0.4-0.1-0.5-0.3c-0.1-0.2-0.1-0.4,0-0.6
			l9.3-15.7c0.1-0.2,0.4-0.3,0.6-0.3c0.2,0.1,0.4,0.3,0.4,0.5v11.3h4.4c0.2,0,0.4,0.1,0.5,0.3c0.1,0.2,0.1,0.4,0,0.6l-9.3,15.7
			C17.4,39.7,17.2,39.8,17,39.8z M13,26.8h4c0.3,0,0.6,0.3,0.6,0.6v9.8l7.7-13h-4c-0.3,0-0.6-0.3-0.6-0.6v-9.8L13,26.8z"/>
	</g>
</g>
</svg>
