<?xml version="1.0" encoding="utf-8"?>
<!-- Generator: Adobe Illustrator 19.2.1, SVG Export Plug-In . SVG Version: 6.00 Build 0)  -->
<svg version="1.1" id="Calque_1" xmlns="http://www.w3.org/2000/svg" xmlns:xlink="http://www.w3.org/1999/xlink" x="0px" y="0px"
	 viewBox="0 0 31.9 32.9" style="enable-background:new 0 0 31.9 32.9;" xml:space="preserve">
<style type="text/css">
	.st0{fill:#FFFFFF;}
</style>
<g>
	<g>
		<path class="st0" d="M22.2,31.4V19.2h-5.1l9.8-16.5v12.3h5.1L22.2,31.4z M18,18.6h4.7v10.9L31,15.4h-4.7V4.5L18,18.6z"/>
	</g>
	<g>
		<path class="st0" d="M16.5,32.9C7.4,32.9,0,25.6,0,16.5S7.4,0,16.5,0c1.9,0,3.8,0.3,5.6,1l-0.2,0.5c-1.7-0.6-3.5-0.9-5.4-0.9
			c-8.8,0-16,7.2-16,16s7.2,16,16,16c0.6,0,1.2,0,1.8-0.1l0.1,0.5C17.7,32.9,17.1,32.9,16.5,32.9z"/>
	</g>
	<g>
		<path class="st0" d="M16.3,28C10,28,4.9,22.9,4.9,16.6c0-6.3,5.1-11.4,11.4-11.4c1.4,0,2.8,0.2,4.1,0.7l-0.2,0.5
			c-1.2-0.5-2.5-0.7-3.9-0.7c-6,0-10.9,4.9-10.9,10.9s4.9,10.9,10.9,10.9c0.5,0,1.1,0,1.6-0.1l0.1,0.5C17.4,27.9,16.8,28,16.3,28z"
			/>
	</g>
	<g>
		<rect x="5.7" y="18.5" class="st0" width="8.7" height="0.5"/>
	</g>
	<g>
		<rect x="5.7" y="14.7" class="st0" width="8.7" height="0.5"/>
	</g>
</g>
</svg>
