<?xml version="1.0" encoding="utf-8"?>
<!-- Generator: Adobe Illustrator 19.2.1, SVG Export Plug-In . SVG Version: 6.00 Build 0)  -->
<svg version="1.1" id="Calque_1" xmlns="http://www.w3.org/2000/svg" xmlns:xlink="http://www.w3.org/1999/xlink" x="0px" y="0px"
	 viewBox="0 0 16.1 125.8" style="enable-background:new 0 0 16.1 125.8;" xml:space="preserve">
<style type="text/css">
	.st0{fill:#828181;}
</style>
<g>
	<path class="st0" d="M15.9,9.5C15.9,9.5,15.9,9.5,15.9,9.5L15.9,9.5c0,0-0.1,0-0.1,0l-0.5,0c-0.8-0.1-2.3-0.7-3.2-2.9
		c0,0-0.5-3.3-3.8-3.4c0,0,0,0,0,0c0,0,0-0.6,0.5-0.7c0-0.1-0.2-0.3-0.4-0.4c0,0,0.1-0.3-0.1-0.4c0,0,0,0-0.1,0
		C8.5,1.5,8.7,0.7,8.1,0c0,0,0,0,0,0c0,0,0,0,0,0c0,0,0,0,0,0c0,0,0,0,0,0C7.5,0.7,7.7,1.4,7.8,1.8c0,0-0.1,0-0.1,0
		C7.5,1.9,7.6,2.1,7.6,2.1C7.4,2.2,7.2,2.4,7.2,2.5c0.5,0,0.5,0.7,0.5,0.7c0,0,0,0,0,0C4.6,3.3,4,6.6,4,6.6C3.1,8.8,1.6,9.3,0.8,9.4
		l-0.6,0C0.1,9.4,0,9.6,0,9.7C0,9.8,0.1,10,0.3,10l1.4,0l2.7,12.2h0c0,1,0.8,1,1.7,1.1C6.8,23.4,7,24,7,24.2
		c-0.3,0.3-0.5,0.7-0.5,1.1c0,0.5,0.3,1,0.7,1.3v37.3h1.7V26.5c0.4-0.3,0.7-0.7,0.7-1.3c0-0.5-0.2-0.9-0.5-1.2
		c0.1-0.2,0.2-0.7,0.9-0.8c0.9-0.2,1.7-0.2,1.8-1.1l0,0L14.5,10l1.3,0c0.1,0,0.3-0.1,0.3-0.3C16.1,9.7,16,9.6,15.9,9.5z M10.2,10
		L8.9,22.2l-1,0l0,0l-0.5,0L6.2,10L10.2,10z M4.8,22.1L2.1,10l3.6,0l1.2,12.2L4.8,22.1z M11.2,22.2l-1.8,0L10.7,10l3.3,0L11.2,22.2z
		"/>
	<path class="st0" d="M12.9,122c0.2-0.1,0.4-0.3,0.4-0.5v0c0-0.2-0.1-0.4-0.3-0.5L11.4,105l0,0c0.2,0,0.4-0.2,0.4-0.4l0,0
		c0-0.2-0.2-0.4-0.4-0.4c-1.1-0.7-1-2.5-1-2.5l0,0c0.2,0,0.4-0.2,0.4-0.4l0,0c0-0.2-0.2-0.4-0.4-0.4l-0.3,0l0-2.3l0,0
		c0.3,0,0.5-0.2,0.5-0.5l0,0c0-0.3-0.2-0.5-0.5-0.5l0,0l0.1-30.4l0,0l0-2.3c0.2,0,0.4-0.2,0.4-0.5v0c0-0.3-0.2-0.5-0.5-0.5l-4,0
		c-0.3,0-0.5,0.2-0.5,0.5v0c0,0.3,0.2,0.5,0.5,0.5l0.1,0L6.1,97.7c-0.2,0-0.4,0.2-0.4,0.5v0c0,0.2,0.2,0.4,0.4,0.5l0,2.3l-0.1,0
		c-0.2,0-0.4,0.2-0.4,0.4v0c0,0.2,0.2,0.4,0.4,0.4l0,0c0,0,0,1.8-1,2.5c-0.2,0-0.4,0.2-0.4,0.4v0c0,0.2,0.2,0.4,0.4,0.4l0.1,0h0
		l-1.7,15.9C3.1,121,3,121.2,3,121.5l0,0c0,0.3,0.2,0.5,0.4,0.5c0,0.4-0.4,2.7-2.6,2.7l0,1l6.9,0v0h0l0.8,0v0l6.9,0l0-1
		C13.2,124.8,12.9,122.4,12.9,122z"/>
</g>
</svg>
