<?xml version="1.0" encoding="utf-8"?>
<!-- Generator: Adobe Illustrator 19.2.1, SVG Export Plug-In . SVG Version: 6.00 Build 0)  -->
<svg version="1.1" id="Calque_1" xmlns="http://www.w3.org/2000/svg" xmlns:xlink="http://www.w3.org/1999/xlink" x="0px" y="0px"
	 viewBox="0 0 12.8 64.7" style="enable-background:new 0 0 12.8 64.7;" xml:space="preserve">
<style type="text/css">
	.st0{fill:#FFF947;}
</style>
<g>
	<polygon class="st0" points="6.8,51.9 6.8,19.3 7.1,19.3 7.1,18.5 7.6,18.5 7.6,17.5 4.8,17.5 4.8,18.5 5.5,18.5 5.5,19.3 
		5.8,19.3 5.8,51.9 	"/>
	<path class="st0" d="M5,16.4h2.9l2.7-1.7l1.8-9.1l-0.1-0.1c0-0.1-0.9-2-4.6-3.2C7.9,2.1,8,1.8,8,1.5C8,0.7,7.3,0,6.5,0S5,0.7,5,1.5
		c0,0.3,0.1,0.6,0.2,0.8C1.5,3.5,0.6,5.4,0.6,5.5L0.5,5.6l1.8,9.1L5,16.4z M6.5,1C6.7,1,7,1.2,7,1.5C7,1.7,6.7,2,6.5,2S6,1.7,6,1.5
		C6,1.2,6.2,1,6.5,1z M5.8,3.2H7c3,0.9,4,2.2,4.3,2.6l-1.6,8.3l-2.1,1.3H5.2l-2.1-1.3L1.6,5.8C1.8,5.4,2.9,4,5.8,3.2z"/>
	<polygon class="st0" points="4.8,13.3 5.8,13.2 5.1,6.5 7.5,6.5 6.9,13.2 7.9,13.3 8.5,6.5 9.2,6.5 9.2,5.5 3.6,5.5 3.6,6.5 
		4.1,6.5 	"/>
	<path class="st0" d="M1.5,61.9c3-3,3.3-6.2,3.3-7.4H8c0,1.3,0.3,4.5,3.3,7.4l0.7-0.7c-3.3-3.3-3-7.1-3-7.2L9,53.5l-5.3,0l0.1,0.6
		c0,0,0.4,3.8-3,7.2L1.5,61.9z"/>
	<rect y="63.7" class="st0" width="12.8" height="1"/>
</g>
</svg>
