<?xml version="1.0" encoding="utf-8"?>
<!-- Generator: Adobe Illustrator 19.2.1, SVG Export Plug-In . SVG Version: 6.00 Build 0)  -->
<svg version="1.1" id="Calque_1" xmlns="http://www.w3.org/2000/svg" xmlns:xlink="http://www.w3.org/1999/xlink" x="0px" y="0px"
	 viewBox="0 0 9.3 16.3" style="enable-background:new 0 0 9.3 16.3;" xml:space="preserve">
<style type="text/css">
	.st0{fill:#FFFFFF;}
</style>
<g>
	<g>
		<circle class="st0" cx="3.8" cy="1.3" r="1.3"/>
		<path class="st0" d="M9.1,7.7L6.7,6L5.3,3.2C5.3,3.1,5.2,2.9,5.1,2.9C5,2.7,4.7,2.7,4.5,2.7H2.9c-0.1,0-0.3,0-0.4,0.1
			C2.5,2.8,2.4,2.9,2.3,3L0.5,5.7c0,0.1-0.1,0.2-0.1,0.2L0,9c0,0.3,0.2,0.6,0.5,0.6c0,0,0,0,0.1,0c0.3,0,0.5-0.2,0.6-0.5l0.3-2.9
			l0.7-1v3.7c0,0.1,0,0.1,0,0.2l-0.5,3l-1.6,3c-0.2,0.4-0.1,0.8,0.3,1c0.1,0.1,0.2,0.1,0.4,0.1c0.3,0,0.5-0.1,0.7-0.4l1.6-3.1
			c0-0.1,0.1-0.1,0.1-0.2l0.5-2.8h0.1l2.6,6.2c0.1,0.3,0.4,0.5,0.7,0.5c0.1,0,0.2,0,0.3-0.1c0.4-0.2,0.6-0.6,0.4-1L5.2,9.1
			c0-0.1,0-0.2,0-0.2V5.5l0.6,1.1c0,0.1,0.1,0.1,0.2,0.2l2.5,1.8c0.1,0.1,0.2,0.1,0.3,0.1c0.2,0,0.3-0.1,0.5-0.2
			C9.4,8.2,9.3,7.9,9.1,7.7z"/>
	</g>
</g>
</svg>
