<?xml version="1.0" encoding="utf-8"?>
<!-- Generator: Adobe Illustrator 19.2.1, SVG Export Plug-In . SVG Version: 6.00 Build 0)  -->
<svg version="1.1" id="Calque_1" xmlns="http://www.w3.org/2000/svg" xmlns:xlink="http://www.w3.org/1999/xlink" x="0px" y="0px"
	 viewBox="0 0 35 60.3" style="enable-background:new 0 0 35 60.3;" xml:space="preserve">
<style type="text/css">
	.st0{fill:#FFF947;}
</style>
<path class="st0" d="M35,29.7c-0.1-0.7-0.5-1.3-1-1.6l-8.5-6.2l-5.1-10c0-0.1-0.1-0.2-0.1-0.3c-0.2-0.4-0.4-0.8-0.8-1.1
	c-0.7-0.7-1.8-0.8-2.6-0.8h0c1.5-0.9,2.6-2.6,2.6-4.5c0-2.9-2.3-5.2-5.2-5.2C11.3,0,9,2.3,9,5.2c0,1.9,1.1,3.6,2.6,4.5h-0.4
	c-0.6,0-1.1,0.2-1.6,0.4c-0.5,0.2-0.9,0.5-1.2,1L1.8,21c-0.2,0.3-0.4,0.7-0.4,1.1l-1.3,11C0,34.5,1,35.8,2.4,35.9
	c1.4,0.1,2.6-0.9,2.8-2.2l1.2-10.4L8,21v11.8c0,0.2,0,0.4,0.1,0.7L6.1,44.2L0.4,55c-0.4,0.8-0.5,1.7-0.2,2.5C0.4,58.3,1,59,1.7,59.4
	c0.5,0.3,1,0.4,1.5,0.4c1.2,0,2.3-0.7,2.9-1.7l6-11.3c0.2-0.3,0.3-0.6,0.3-1l1.6-9.2l9,21.6c0.5,1.2,1.7,2,3,2
	c0.4,0,0.9-0.1,1.3-0.3c1.7-0.7,2.5-2.6,1.8-4.3L20,33.5c0.1-0.3,0.1-0.6,0.1-0.8V22.6l1.1,2.1c0.2,0.4,0.4,0.7,0.8,0.9l9,6.5
	c1.1,0.8,2.7,0.5,3.5-0.6C34.9,31.1,35.1,30.4,35,29.7z M10,5.2C10,2.9,11.9,1,14.2,1s4.2,1.9,4.2,4.2s-1.9,4.2-4.2,4.2
	S10,7.6,10,5.2z M33.7,31c-0.5,0.7-1.5,0.8-2.1,0.3l-9-6.5c-0.2-0.1-0.4-0.3-0.5-0.5l-3-5.8v14.2c0,0.2,0,0.5-0.1,0.7l-0.1,0.2
	l9.4,22.5c0.5,1.2-0.1,2.5-1.2,3c-1.2,0.5-2.5-0.1-3-1.2L14.5,35h-1.1l-1.9,10.7c0,0.2-0.1,0.5-0.2,0.7l-6,11.3
	c-0.6,1.1-2,1.5-3.1,0.9c-0.5-0.3-0.9-0.8-1.1-1.4C0.9,56.6,1,56,1.3,55.5l5.8-10.9l2-11.2l0-0.1C9,33,9,32.9,9,32.7V17.6l-3.5,5.3
	L4.2,33.6c-0.1,0.8-0.9,1.4-1.7,1.3c-0.8-0.1-1.4-0.9-1.3-1.7l1.3-11c0-0.2,0.1-0.5,0.2-0.7l6.6-9.9c0.2-0.3,0.4-0.5,0.8-0.6
	c0.4-0.2,0.7-0.3,1.1-0.3h5.6c0.9,0,1.6,0.2,1.9,0.6l0.2,0.1c0.1,0.1,0.3,0.4,0.4,0.6c0,0.1,0.1,0.2,0.1,0.3l5.2,10.3l8.7,6.3
	c0.3,0.2,0.5,0.6,0.6,1C34,30.3,34,30.7,33.7,31z"/>
</svg>
