<?xml version="1.0" encoding="utf-8"?>
<!-- Generator: Adobe Illustrator 19.2.1, SVG Export Plug-In . SVG Version: 6.00 Build 0)  -->
<svg version="1.1" id="Calque_1" xmlns="http://www.w3.org/2000/svg" xmlns:xlink="http://www.w3.org/1999/xlink" x="0px" y="0px"
	 viewBox="0 0 66.5 69.7" style="enable-background:new 0 0 66.5 69.7;" xml:space="preserve">
<style type="text/css">
	.st0{fill:#FFF947;}
</style>
<g>
	<circle class="st0" cx="32.4" cy="16.8" r="3.1"/>
	<path class="st0" d="M45.3,31.9l-5.7-4.1L36.1,21c-0.1-0.3-0.3-0.6-0.5-0.8c-0.3-0.4-0.9-0.5-1.5-0.5h-3.7c-0.3,0-0.7,0.1-0.9,0.3
		c-0.3,0.1-0.5,0.3-0.6,0.5l-4.4,6.6c-0.1,0.2-0.2,0.4-0.2,0.6L23.4,35c-0.1,0.7,0.4,1.4,1.2,1.5c0.1,0,0.1,0,0.2,0
		c0.7,0,1.3-0.5,1.3-1.2l0.8-7l1.7-2.5v8.9c0,0.2,0,0.3,0.1,0.5l-1.3,7.3l-3.9,7.2c-0.5,0.9-0.1,2,0.8,2.5c0.3,0.1,0.6,0.2,0.9,0.2
		c0.7,0,1.3-0.4,1.6-1l4-7.5c0.1-0.2,0.2-0.4,0.2-0.5l1.2-6.8h0.2l6.3,15c0.3,0.7,1,1.1,1.7,1.1c0.2,0,0.5,0,0.7-0.1
		c0.9-0.4,1.4-1.5,1-2.4l-6.2-14.8c0.1-0.2,0.1-0.4,0.1-0.6v-8.1l1.4,2.7c0.1,0.2,0.2,0.4,0.4,0.5l6,4.3c0.2,0.2,0.5,0.3,0.8,0.3
		c0.4,0,0.8-0.2,1.1-0.6C46,33.2,45.9,32.3,45.3,31.9z"/>
</g>
<g>
	<path class="st0" d="M33.8,69.7h-1.4c-0.1,0-0.2,0-0.3-0.1C3.2,55.2,3.9,41,4.5,28.5c0-0.6,0.1-1.3,0.1-1.9
		c0.6-12.4-4.3-15.4-4.3-15.4C0.1,11.1,0,10.8,0,10.5c0.1-0.2,0.3-0.4,0.6-0.4c24.9,0.3,32.2-9.8,32.2-9.9C32.9,0.1,33.1,0,33.3,0
		c0,0,0,0,0,0c0.2,0,0.4,0.1,0.5,0.2c0.1,0.1,7.4,10.1,32.2,9.9c0,0,0,0,0,0c0.3,0,0.5,0.2,0.5,0.4c0.1,0.3,0,0.5-0.3,0.6
		c0,0-4.9,3-4.3,15.4l0.1,1.6c0.6,12.6,1.3,26.9-27.9,41.5C34,69.7,33.9,69.7,33.8,69.7z M32.5,68.6h1.2
		c28.4-14.2,27.7-28.1,27.1-40.3l-0.1-1.6c-0.4-9.3,2.1-13.6,3.7-15.4c-21.2-0.1-29.3-7.6-31.2-9.8c-1.9,2.2-10,9.7-31.2,9.8
		c1.6,1.8,4.1,6,3.7,15.4c0,0.6-0.1,1.3-0.1,1.9C5,41.3,4.4,54.5,32.5,68.6z"/>
</g>
</svg>
