<?xml version="1.0" encoding="utf-8"?>
<!-- Generator: Adobe Illustrator 19.2.1, SVG Export Plug-In . SVG Version: 6.00 Build 0)  -->
<svg version="1.1" id="Calque_1" xmlns="http://www.w3.org/2000/svg" xmlns:xlink="http://www.w3.org/1999/xlink" x="0px" y="0px"
	 viewBox="0 0 71.5 71.5" style="enable-background:new 0 0 71.5 71.5;" xml:space="preserve">
<style type="text/css">
	.st0{fill:#FFF947;}
</style>
<g>
	<g>
		<g>
			<path class="st0" d="M2.3,38C2.1,38,2,38,1.9,37.9l-1.7-1.7c-0.2-0.2-0.2-0.6,0-0.8l1.7-1.7c0.2-0.2,0.6-0.2,0.8,0
				c0.2,0.2,0.2,0.6,0,0.8l-1.3,1.3l1.3,1.3c0.2,0.2,0.2,0.6,0,0.8C2.6,38,2.4,38,2.3,38z"/>
		</g>
		<g>
			<path class="st0" d="M5.8,31c-0.1,0-0.3-0.1-0.4-0.2c-0.2-0.2-0.2-0.6,0-0.8l3.5-3.5c0.2-0.2,0.6-0.2,0.8,0
				c0.2,0.2,0.2,0.6,0,0.8l-3.5,3.5C6.1,31,6,31,5.8,31z M12.9,24c-0.1,0-0.3-0.1-0.4-0.2c-0.2-0.2-0.2-0.6,0-0.8l3.5-3.5
				c0.2-0.2,0.6-0.2,0.8,0c0.2,0.2,0.2,0.6,0,0.8l-3.5,3.5C13.1,23.9,13,24,12.9,24z M19.9,16.9c-0.1,0-0.3-0.1-0.4-0.2
				c-0.2-0.2-0.2-0.6,0-0.8l3.5-3.5c0.2-0.2,0.6-0.2,0.8,0c0.2,0.2,0.2,0.6,0,0.8l-3.5,3.5C20.2,16.9,20.1,16.9,19.9,16.9z M27,9.9
				c-0.1,0-0.3-0.1-0.4-0.2c-0.2-0.2-0.2-0.6,0-0.8l3.5-3.5c0.2-0.2,0.6-0.2,0.8,0c0.2,0.2,0.2,0.6,0,0.8l-3.5,3.5
				C27.2,9.8,27.1,9.9,27,9.9z"/>
		</g>
		<g>
			<path class="st0" d="M37.5,2.8c-0.1,0-0.3-0.1-0.4-0.2l-1.3-1.3l-1.3,1.3c-0.2,0.2-0.6,0.2-0.8,0c-0.2-0.2-0.2-0.6,0-0.8l1.7-1.7
				c0.2-0.2,0.6-0.2,0.8,0l1.7,1.7c0.2,0.2,0.2,0.6,0,0.8C37.8,2.8,37.6,2.8,37.5,2.8z"/>
		</g>
		<g>
			<path class="st0" d="M65.7,31c-0.1,0-0.3-0.1-0.4-0.2l-3.5-3.5c-0.2-0.2-0.2-0.6,0-0.8c0.2-0.2,0.6-0.2,0.8,0l3.5,3.5
				c0.2,0.2,0.2,0.6,0,0.8C66,31,65.8,31,65.7,31z M58.6,24c-0.1,0-0.3-0.1-0.4-0.2l-3.5-3.5c-0.2-0.2-0.2-0.6,0-0.8
				c0.2-0.2,0.6-0.2,0.8,0L59,23c0.2,0.2,0.2,0.6,0,0.8C58.9,23.9,58.8,24,58.6,24z M51.6,16.9c-0.1,0-0.3-0.1-0.4-0.2l-3.5-3.5
				c-0.2-0.2-0.2-0.6,0-0.8c0.2-0.2,0.6-0.2,0.8,0L52,16c0.2,0.2,0.2,0.6,0,0.8C51.9,16.9,51.7,16.9,51.6,16.9z M44.5,9.9
				c-0.1,0-0.3-0.1-0.4-0.2l-3.5-3.5c-0.2-0.2-0.2-0.6,0-0.8c0.2-0.2,0.6-0.2,0.8,0l3.5,3.5c0.2,0.2,0.2,0.6,0,0.8
				C44.8,9.8,44.7,9.9,44.5,9.9z"/>
		</g>
		<g>
			<path class="st0" d="M69.2,38c-0.1,0-0.3-0.1-0.4-0.2c-0.2-0.2-0.2-0.6,0-0.8l1.3-1.3l-1.3-1.3c-0.2-0.2-0.2-0.6,0-0.8
				c0.2-0.2,0.6-0.2,0.8,0l1.7,1.7c0.2,0.2,0.2,0.6,0,0.8l-1.7,1.7C69.5,38,69.3,38,69.2,38z"/>
		</g>
		<g>
			<path class="st0" d="M41,66.2c-0.1,0-0.3-0.1-0.4-0.2c-0.2-0.2-0.2-0.6,0-0.8l3.5-3.5c0.2-0.2,0.6-0.2,0.8,0
				c0.2,0.2,0.2,0.6,0,0.8l-3.5,3.5C41.3,66.2,41.1,66.2,41,66.2z M48.1,59.2c-0.1,0-0.3-0.1-0.4-0.2c-0.2-0.2-0.2-0.6,0-0.8
				l3.5-3.5c0.2-0.2,0.6-0.2,0.8,0c0.2,0.2,0.2,0.6,0,0.8L48.4,59C48.3,59.1,48.2,59.2,48.1,59.2z M55.1,52.1
				c-0.1,0-0.3-0.1-0.4-0.2c-0.2-0.2-0.2-0.6,0-0.8l3.5-3.5c0.2-0.2,0.6-0.2,0.8,0c0.2,0.2,0.2,0.6,0,0.8L55.5,52
				C55.4,52.1,55.2,52.1,55.1,52.1z M62.1,45.1c-0.1,0-0.3-0.1-0.4-0.2c-0.2-0.2-0.2-0.6,0-0.8l3.5-3.5c0.2-0.2,0.6-0.2,0.8,0
				c0.2,0.2,0.2,0.6,0,0.8l-3.5,3.5C62.4,45,62.3,45.1,62.1,45.1z"/>
		</g>
		<g>
			<path class="st0" d="M35.7,71.5c-0.1,0-0.3-0.1-0.4-0.2l-1.7-1.7c-0.2-0.2-0.2-0.6,0-0.8c0.2-0.2,0.6-0.2,0.8,0l1.3,1.3l1.3-1.3
				c0.2-0.2,0.6-0.2,0.8,0c0.2,0.2,0.2,0.6,0,0.8l-1.7,1.7C36,71.4,35.9,71.5,35.7,71.5z"/>
		</g>
		<g>
			<path class="st0" d="M30.5,66.2c-0.1,0-0.3-0.1-0.4-0.2l-3.5-3.5c-0.2-0.2-0.2-0.6,0-0.8c0.2-0.2,0.6-0.2,0.8,0l3.5,3.5
				c0.2,0.2,0.2,0.6,0,0.8C30.8,66.2,30.6,66.2,30.5,66.2z M23.4,59.2c-0.1,0-0.3-0.1-0.4-0.2l-3.5-3.5c-0.2-0.2-0.2-0.6,0-0.8
				c0.2-0.2,0.6-0.2,0.8,0l3.5,3.5c0.2,0.2,0.2,0.6,0,0.8C23.7,59.1,23.6,59.2,23.4,59.2z M16.4,52.1c-0.1,0-0.3-0.1-0.4-0.2
				l-3.5-3.5c-0.2-0.2-0.2-0.6,0-0.8c0.2-0.2,0.6-0.2,0.8,0l3.5,3.5c0.2,0.2,0.2,0.6,0,0.8C16.7,52.1,16.5,52.1,16.4,52.1z
				 M9.3,45.1c-0.1,0-0.3-0.1-0.4-0.2l-3.5-3.5c-0.2-0.2-0.2-0.6,0-0.8c0.2-0.2,0.6-0.2,0.8,0l3.5,3.5c0.2,0.2,0.2,0.6,0,0.8
				C9.6,45,9.5,45.1,9.3,45.1z"/>
		</g>
	</g>
	<g>
		<path class="st0" d="M35.7,63.4c-0.1,0-0.3-0.1-0.4-0.2L8.2,36.1C8.1,36,8,35.9,8,35.7s0.1-0.3,0.2-0.4L35.3,8.2
			c0.2-0.2,0.6-0.2,0.8,0l27.1,27.1c0.1,0.1,0.2,0.3,0.2,0.4s-0.1,0.3-0.2,0.4L36.1,63.3C36,63.4,35.9,63.4,35.7,63.4z M9.4,35.7
			l26.3,26.3l26.3-26.3L35.7,9.4L9.4,35.7z"/>
	</g>
</g>
</svg>
