<?xml version="1.0" encoding="utf-8"?>
<!-- Generator: Adobe Illustrator 19.2.1, SVG Export Plug-In . SVG Version: 6.00 Build 0)  -->
<svg version="1.1" id="Calque_1" xmlns="http://www.w3.org/2000/svg" xmlns:xlink="http://www.w3.org/1999/xlink" x="0px" y="0px"
	 viewBox="0 0 19.4 8.7" style="enable-background:new 0 0 19.4 8.7;" xml:space="preserve">
<style type="text/css">
	.st0{fill:#FFFFFF;}
</style>
<path class="st0" d="M19,5.8C18.9,5.2,18.6,4,18.6,4c-2.1-0.9-4.4-1-4.4-1c-1-1.3-2.5-2.6-2.6-2.7c-3.5-0.8-8.4,0-8.4,0L1.6,3.4
	c0,0-1.1,0.7-1.2,0.9c0,0.3-0.1,1.2-0.1,1.2c0,0-0.4,0-0.4,0.5c0,0.5,0,0.8,0,0.8s0,0.5,0.3,0.5h1.3l0.6,0C2.3,8.1,3,8.7,3.8,8.7
	c0.8,0,1.5-0.6,1.6-1.4l0.7,0h6.1l0.7,0c0.1,0.8,0.8,1.4,1.6,1.4c0.8,0,1.5-0.6,1.6-1.4l0.7,0h2.2c0.3,0,0.3-0.4,0.3-0.4
	s0-0.3,0-0.8S19,5.8,19,5.8z"/>
</svg>
