<?xml version="1.0" encoding="utf-8"?>
<!-- Generator: Adobe Illustrator 19.2.1, SVG Export Plug-In . SVG Version: 6.00 Build 0)  -->
<svg version="1.1" id="Calque_1" xmlns="http://www.w3.org/2000/svg" xmlns:xlink="http://www.w3.org/1999/xlink" x="0px" y="0px"
	 viewBox="0 0 83.2 38" style="enable-background:new 0 0 83.2 38;" xml:space="preserve">
<style type="text/css">
	.st0{fill:#FFF947;}
</style>
<g>
	<g>
		<path class="st0" d="M81.2,32.3h-9.3v-1.1h9.3c0.8,0,0.8-1.1,0.8-1.2v-3.2c0-0.4-0.1-0.7-0.3-0.8c-0.3-0.3-0.8-0.3-0.8-0.3
			c-0.3,0-0.6-0.2-0.6-0.5c-0.2-2-1.3-6.1-1.6-7.2c-8.4-3.5-18.2-4.1-18.3-4.1c-0.2,0-0.3-0.1-0.4-0.2C55.8,8.4,50,2.9,49.3,2.6
			c-13.5-3-32.3-0.4-34.8,0L8,15.2c0,0.1-0.1,0.2-0.2,0.2c-2.1,1.3-4.4,2.9-4.6,3.4c-0.1,1-0.2,4.3-0.2,4.7c0,0.1,0,0.1,0,0.2
			c0,0.3-0.3,0.5-0.6,0.5c-0.2,0-1.2,0.1-1.2,1.6v3.3c0,0.3,0,1.1,0.4,1.4c0.1,0.1,0.3,0.2,0.5,0.2h5.4v1.1H2c-0.5,0-1-0.2-1.3-0.5
			C-0.1,30.6,0,29.3,0,29.1l0-3.3c0-1.7,1-2.4,1.8-2.7c0-0.7,0.1-2,0.2-4.5c0.1-1,2.7-2.8,5-4.2l6.6-12.8c0.1-0.2,0.2-0.3,0.4-0.3
			c0.2,0,20.9-3.3,35.6,0c0.8,0.2,7.2,6.4,11.2,11.3c1.6,0.1,10.8,0.9,18.7,4.2c0.2,0.1,0.3,0.2,0.3,0.4c0.1,0.2,1.3,4.6,1.6,7.2
			c0.3,0.1,0.7,0.2,1.1,0.5c0.4,0.4,0.6,1,0.6,1.7v3.2C83.2,30.7,82.8,32.3,81.2,32.3z"/>
	</g>
	<g>
		<path class="st0" d="M62.3,38c-4.1,0-7.5-3.4-7.5-7.5c0-4.1,3.4-7.5,7.5-7.5s7.5,3.4,7.5,7.5C69.8,34.7,66.5,38,62.3,38z
			 M62.3,24.2c-3.5,0-6.3,2.8-6.3,6.3c0,3.5,2.8,6.3,6.3,6.3s6.3-2.8,6.3-6.3C68.7,27.1,65.8,24.2,62.3,24.2z"/>
	</g>
	<g>
		<path class="st0" d="M16.7,38c-4.1,0-7.5-3.4-7.5-7.5c0-4.1,3.4-7.5,7.5-7.5c4.1,0,7.5,3.4,7.5,7.5C24.1,34.7,20.8,38,16.7,38z
			 M16.7,24.2c-3.5,0-6.3,2.8-6.3,6.3c0,3.5,2.8,6.3,6.3,6.3c3.5,0,6.3-2.8,6.3-6.3C23,27.1,20.2,24.2,16.7,24.2z"/>
	</g>
	<g>
		<rect x="26.5" y="31" class="st0" width="26" height="1.1"/>
	</g>
	<g>
		<path class="st0" d="M55,14.9H36.8c-0.3,0-0.6-0.3-0.6-0.6V4.1c0-0.3,0.3-0.6,0.6-0.6h9.7v1.1h-9.1v9.1H55V14.9z"/>
	</g>
	<g>
		<path class="st0" d="M32.5,14.9H14.3v-1.1h17.6V4.7h-9.1V3.6h9.7c0.3,0,0.6,0.3,0.6,0.6v10.2C33.1,14.7,32.8,14.9,32.5,14.9z"/>
	</g>
	<g>
		<rect x="34.3" y="17.8" class="st0" width="1.1" height="8.9"/>
	</g>
</g>
</svg>
