<?xml version="1.0" encoding="utf-8"?>
<!-- Generator: Adobe Illustrator 19.2.1, SVG Export Plug-In . SVG Version: 6.00 Build 0)  -->
<svg version="1.1" id="Calque_1" xmlns="http://www.w3.org/2000/svg" xmlns:xlink="http://www.w3.org/1999/xlink" x="0px" y="0px"
	 viewBox="0 0 40.5 18.5" style="enable-background:new 0 0 40.5 18.5;" xml:space="preserve">
<style type="text/css">
	.st0{fill:#FFFFFF;}
</style>
<g>
	<g>
		<path class="st0" d="M39.5,15.7H35v-0.5h4.5c0.4,0,0.4-0.6,0.4-0.6V13c0-0.2,0-0.3-0.1-0.4c-0.2-0.1-0.4-0.1-0.4-0.1
			c-0.1,0-0.3-0.1-0.3-0.2c-0.1-1-0.6-3-0.8-3.5c-4.1-1.7-8.9-2-8.9-2c-0.1,0-0.1,0-0.2-0.1C27.2,4,24.3,1.4,24,1.2
			C17.4-0.3,8.2,1,7,1.2L3.9,7.4c0,0-0.1,0.1-0.1,0.1c-1,0.6-2.2,1.4-2.3,1.7c0,0.5-0.1,2.1-0.1,2.3c0,0,0,0.1,0,0.1
			c0,0.1-0.1,0.2-0.3,0.2c-0.1,0-0.6,0.1-0.6,0.8v1.6c0,0.1,0,0.5,0.2,0.7C0.8,15,0.8,15,0.9,15h2.6v0.5H0.9c-0.2,0-0.5-0.1-0.6-0.3
			C0,14.9,0,14.2,0,14.2l0-1.6c0-0.8,0.5-1.2,0.9-1.3c0-0.4,0-1,0.1-2.2c0-0.5,1.3-1.4,2.4-2l3.2-6.2c0-0.1,0.1-0.1,0.2-0.1
			c0.1,0,10.2-1.6,17.3,0c0.4,0.1,3.5,3.1,5.4,5.5c0.8,0.1,5.3,0.4,9.1,2.1c0.1,0,0.1,0.1,0.1,0.2c0,0.1,0.6,2.3,0.8,3.5
			c0.2,0,0.4,0.1,0.5,0.2c0.2,0.2,0.3,0.5,0.3,0.8v1.6C40.5,14.9,40.3,15.7,39.5,15.7z"/>
	</g>
	<g>
		<path class="st0" d="M30.3,18.5c-2,0-3.6-1.6-3.6-3.6s1.6-3.6,3.6-3.6s3.6,1.6,3.6,3.6S32.3,18.5,30.3,18.5z M30.3,11.8
			c-1.7,0-3.1,1.4-3.1,3.1c0,1.7,1.4,3.1,3.1,3.1s3.1-1.4,3.1-3.1C33.4,13.1,32,11.8,30.3,11.8z"/>
	</g>
	<g>
		<path class="st0" d="M8.1,18.5c-2,0-3.6-1.6-3.6-3.6s1.6-3.6,3.6-3.6s3.6,1.6,3.6,3.6S10.1,18.5,8.1,18.5z M8.1,11.8
			c-1.7,0-3.1,1.4-3.1,3.1C5,16.6,6.4,18,8.1,18c1.7,0,3.1-1.4,3.1-3.1C11.2,13.1,9.8,11.8,8.1,11.8z"/>
	</g>
	<g>
		<rect x="12.9" y="15.1" class="st0" width="12.6" height="0.5"/>
	</g>
	<g>
		<path class="st0" d="M26.8,7.2h-8.8c-0.1,0-0.3-0.1-0.3-0.3V2c0-0.1,0.1-0.3,0.3-0.3h4.7v0.5h-4.5v4.5h8.6V7.2z"/>
	</g>
	<g>
		<path class="st0" d="M15.8,7.2H7V6.7h8.6V2.3h-4.5V1.7h4.7c0.1,0,0.3,0.1,0.3,0.3v5C16.1,7.1,15.9,7.2,15.8,7.2z"/>
	</g>
	<g>
		<rect x="16.7" y="8.7" class="st0" width="0.5" height="4.4"/>
	</g>
</g>
</svg>
